<svg width="185" height="67" viewBox="0 0 185 67" fill="none" xmlns="http://www.w3.org/2000/svg">
<path d="M0.5 26.4V15.3H27.6V65H14.6V26.4H0.5ZM73.7648 66.2C67.4982 66.2 61.9648 65.2 57.1648 63.2C52.4315 61.2 48.7315 58.3 46.0648 54.5C43.3982 50.6333 42.0648 45.9 42.0648 40.3C42.0648 34.7 43.3982 29.9667 46.0648 26.1C48.7315 22.1667 52.4315 19.2 57.1648 17.2C61.9648 15.2 67.4982 14.2 73.7648 14.2C80.0315 14.2 85.4982 15.2 90.1648 17.2C94.8982 19.2 98.5982 22.1667 101.265 26.1C103.932 29.9667 105.265 34.7 105.265 40.3C105.265 45.9 103.932 50.6333 101.265 54.5C98.5982 58.3 94.8982 61.2 90.1648 63.2C85.4982 65.2 80.0315 66.2 73.7648 66.2ZM73.7648 56.2C77.1648 56.2 80.2315 55.6 82.9648 54.4C85.7648 53.1333 87.9648 51.3333 89.5648 49C91.2315 46.6 92.0648 43.7 92.0648 40.3C92.0648 36.9 91.2315 34 89.5648 31.6C87.9648 29.1333 85.7982 27.2667 83.0648 26C80.3315 24.7333 77.2315 24.1 73.7648 24.1C70.3648 24.1 67.2648 24.7333 64.4648 26C61.6648 27.2667 59.4315 29.1 57.7648 31.5C56.0982 33.9 55.2648 36.8333 55.2648 40.3C55.2648 43.7 56.0648 46.6 57.6648 49C59.3315 51.3333 61.5648 53.1333 64.3648 54.4C67.1648 55.6 70.2982 56.2 73.7648 56.2ZM167.993 0.299999H184.193L153.593 36L153.193 36.4L130.493 65H114.293L145.793 27.5L146.093 27.2L167.993 0.299999ZM131.493 0.299999L153.093 27.4L153.293 27.7L184.493 65H167.593L145.193 36L144.893 35.8L115.293 0.299999H131.493Z" fill="#19508d"/>
</svg>
