<svg width="184" height="53" viewBox="0 0 184 53" fill="none" xmlns="http://www.w3.org/2000/svg">
<path d="M34.8 35.9L18.6 43.5L18.1 41H55.4V51H2.1V41C8.1 38.2667 13.5 35.9333 18.3 34C23.1 32.0667 27.1667 30.3333 30.5 28.8C33.8333 27.2 36.3667 25.6 38.1 24C39.9 22.3333 40.8 20.5 40.8 18.5C40.8 16.9 40.3333 15.5333 39.4 14.4C38.4667 13.2 37 12.2667 35 11.6C33 10.9333 30.4 10.6 27.2 10.6C23 10.6 19.6 11.4333 17 13.1C14.4667 14.7 13.1333 16.9 13 19.7H0.4C0.2 15.8333 1.13333 12.4333 3.2 9.5C5.33333 6.56666 8.43333 4.26666 12.5 2.6C16.5667 0.933332 21.3667 0.0999997 26.9 0.0999997C30.9667 0.0999997 34.6667 0.499999 38 1.3C41.3333 2.03333 44.2 3.13333 46.6 4.6C49.0667 6.06666 50.9333 7.83333 52.2 9.9C53.5333 11.9667 54.2 14.3 54.2 16.9C54.2 18.9 53.8333 20.7333 53.1 22.4C52.3667 24 51.2 25.5333 49.6 27C48.0667 28.4667 46.0667 29.9333 43.6 31.4C41.1333 32.8 38.2 34.3 34.8 35.9ZM96.2023 52.2C89.9357 52.2 84.4023 51.2 79.6023 49.2C74.869 47.2 71.169 44.3 68.5023 40.5C65.8357 36.6333 64.5023 31.9 64.5023 26.3C64.5023 20.7 65.8357 15.9667 68.5023 12.1C71.169 8.16666 74.869 5.2 79.6023 3.2C84.4023 1.2 89.9357 0.199998 96.2023 0.199998C102.469 0.199998 107.936 1.2 112.602 3.2C117.336 5.2 121.036 8.16666 123.702 12.1C126.369 15.9667 127.702 20.7 127.702 26.3C127.702 31.9 126.369 36.6333 123.702 40.5C121.036 44.3 117.336 47.2 112.602 49.2C107.936 51.2 102.469 52.2 96.2023 52.2ZM96.2023 42.2C99.6023 42.2 102.669 41.6 105.402 40.4C108.202 39.1333 110.402 37.3333 112.002 35C113.669 32.6 114.502 29.7 114.502 26.3C114.502 22.9 113.669 20 112.002 17.6C110.402 15.1333 108.236 13.2667 105.502 12C102.769 10.7333 99.669 10.1 96.2023 10.1C92.8023 10.1 89.7023 10.7333 86.9023 12C84.1023 13.2667 81.869 15.1 80.2023 17.5C78.5357 19.9 77.7023 22.8333 77.7023 26.3C77.7023 29.7 78.5023 32.6 80.1023 35C81.769 37.3333 84.0023 39.1333 86.8023 40.4C89.6023 41.6 92.7357 42.2 96.2023 42.2ZM137.83 19.2H183.83V28.7H137.83V19.2ZM166.23 5.1V42.9H155.43V5.1H166.23Z" fill="#19508d"/>
</svg>
