<svg width="266" height="80" viewBox="0 0 266 80" fill="none" xmlns="http://www.w3.org/2000/svg">
<path d="M37.2 22.4C42.4667 22.4 47.0667 23.3 51 25.1C54.9333 26.9 57.9667 29.4667 60.1 32.8C62.3 36.0667 63.3667 39.9 63.3 44.3C63.2333 48.7 62 52.5667 59.6 55.9C57.2 59.1667 53.7667 61.7333 49.3 63.6C44.8333 65.4 39.4667 66.3 33.2 66.3C26.6 66.3 20.8333 65.4667 15.9 63.8C11.0333 62.1333 7.26667 59.7 4.6 56.5C1.93333 53.2333 0.633333 49.3333 0.7 44.8C0.7 43.2 0.933333 41.4667 1.4 39.6C1.93333 37.6667 2.86667 35.6 4.2 33.4C4.4 33 4.96667 32.1333 5.9 30.8C6.9 29.4 8.06667 27.7 9.4 25.7C10.8 23.7 12.3 21.5667 13.9 19.3C15.5 17.0333 17.0667 14.7667 18.6 12.5C20.2 10.2333 21.6333 8.2 22.9 6.4C24.2333 4.53333 25.2667 3.06666 26 1.99999C26.8 0.866664 27.2 0.299999 27.2 0.299999H43.6L9.9 41.9L6 45.3C8.6 41.7667 11.0667 38.6 13.4 35.8C15.7333 32.9333 18.0667 30.5 20.4 28.5C22.8 26.5 25.3333 25 28 24C30.7333 22.9333 33.8 22.4 37.2 22.4ZM32.5 55.7C37.6333 55.7 41.8 54.7 45 52.7C48.2667 50.7 49.9333 47.8333 50 44.1C50.0667 40.3667 48.5 37.5 45.3 35.5C42.1667 33.4333 38.0333 32.4 32.9 32.4C27.1667 32.4 22.6 33.5333 19.2 35.8C15.8 38.0667 14.0667 40.8667 14 44.2C13.9333 47.9333 15.6333 50.8 19.1 52.8C22.6333 54.7333 27.1 55.7 32.5 55.7ZM96.5453 57.6C91.412 57.6 86.8453 56.7 82.8453 54.9C78.912 53.0333 75.8453 50.4667 73.6453 47.2C71.4453 43.9333 70.3453 40.1 70.3453 35.7C70.412 31.1667 71.6786 27.2667 74.1453 24C76.612 20.7333 80.1786 18.2333 84.8453 16.5C89.512 14.7 95.1453 13.8 101.745 13.8C108.412 13.8 114.112 14.6333 118.845 16.3C123.645 17.9667 127.312 20.4 129.845 23.6C132.445 26.7333 133.712 30.6 133.645 35.2C133.645 36.9333 133.345 38.7667 132.745 40.7C132.145 42.6333 131.112 44.7333 129.645 47C129.445 47.3333 128.879 48.2 127.945 49.6C127.079 50.9333 125.945 52.6 124.545 54.6C123.212 56.6 121.745 58.7667 120.145 61.1C118.612 63.3667 117.079 65.6 115.545 67.8C114.012 70.0667 112.612 72.1 111.345 73.9C110.079 75.7667 109.045 77.2333 108.245 78.3C107.512 79.4333 107.145 80 107.145 80H90.6453L124.345 38.1L128.345 35.1C125.745 38.5667 123.245 41.7 120.845 44.5C118.445 47.2333 116.045 49.6 113.645 51.6C111.245 53.5333 108.645 55.0333 105.845 56.1C103.045 57.1 99.9453 57.6 96.5453 57.6ZM101.745 24.3C96.2787 24.3 91.912 25.2667 88.6453 27.2C85.4453 29.1333 83.812 32.0333 83.7453 35.9C83.6786 39.6333 85.212 42.5333 88.3453 44.6C91.5453 46.6 95.8786 47.6 101.345 47.6C107.079 47.6 111.645 46.5 115.045 44.3C118.512 42.1 120.279 39.2667 120.345 35.8C120.412 33.2667 119.645 31.1667 118.045 29.5C116.445 27.7667 114.245 26.4667 111.445 25.6C108.645 24.7333 105.412 24.3 101.745 24.3ZM143.972 65V0.299999H181.272C189.939 0.299999 196.505 1.76666 200.972 4.7C205.505 7.56667 207.772 11.8667 207.772 17.6C207.772 21.2667 206.872 24.1667 205.072 26.3C203.272 28.3667 200.705 29.9 197.372 30.9C194.105 31.9 190.239 32.5333 185.772 32.8L186.172 32.1C189.439 32.1667 192.505 32.4 195.372 32.8C198.305 33.2 200.872 33.9333 203.072 35C205.272 36.0667 207.005 37.5667 208.272 39.5C209.539 41.3667 210.172 43.8333 210.172 46.9C210.172 50.9 209.105 54.2333 206.972 56.9C204.839 59.5 201.872 61.4667 198.072 62.8C194.272 64.1333 189.872 64.8667 184.872 65H143.972ZM157.272 54H183.472C187.672 54 190.905 53.3333 193.172 52C195.439 50.6 196.572 48.4 196.572 45.4C196.572 43.2 195.905 41.6 194.572 40.6C193.239 39.6 191.472 39 189.272 38.8C187.072 38.5333 184.705 38.4 182.172 38.4H157.272V54ZM157.272 27.7H180.772C184.972 27.7 188.205 27.1 190.472 25.9C192.739 24.6333 193.872 22.5 193.872 19.5C193.872 16.5 192.739 14.4 190.472 13.2C188.205 11.9333 185.205 11.3 181.472 11.3H157.272V27.7ZM219.099 33.2H265.099V42.7H219.099V33.2ZM247.499 19.1V56.9H236.699V19.1H247.499Z" fill="#19508d"/>
</svg>
