<svg width="324" height="84" viewBox="0 0 324 84" fill="none" xmlns="http://www.w3.org/2000/svg">
<path d="M26.8 61.6C21.6667 61.6 17.1 60.7 13.1 58.9C9.16667 57.0333 6.1 54.4667 3.9 51.2C1.7 47.9333 0.6 44.1 0.6 39.7C0.666667 35.1667 1.93333 31.2667 4.4 28C6.86667 24.7333 10.4333 22.2333 15.1 20.5C19.7667 18.7 25.4 17.8 32 17.8C38.6667 17.8 44.3667 18.6333 49.1 20.3C53.9 21.9667 57.5667 24.4 60.1 27.6C62.7 30.7333 63.9667 34.6 63.9 39.2C63.9 40.9333 63.6 42.7667 63 44.7C62.4 46.6333 61.3667 48.7333 59.9 51C59.7 51.3333 59.1333 52.2 58.2 53.6C57.3333 54.9333 56.2 56.6 54.8 58.6C53.4667 60.6 52 62.7667 50.4 65.1C48.8667 67.3667 47.3333 69.6 45.8 71.8C44.2667 74.0667 42.8667 76.1 41.6 77.9C40.3333 79.7667 39.3 81.2333 38.5 82.3C37.7667 83.4333 37.4 84 37.4 84H20.9L54.6 42.1L58.6 39.1C56 42.5667 53.5 45.7 51.1 48.5C48.7 51.2333 46.3 53.6 43.9 55.6C41.5 57.5333 38.9 59.0333 36.1 60.1C33.3 61.1 30.2 61.6 26.8 61.6ZM32 28.3C26.5333 28.3 22.1667 29.2667 18.9 31.2C15.7 33.1333 14.0667 36.0333 14 39.9C13.9333 43.6333 15.4667 46.5333 18.6 48.6C21.8 50.6 26.1333 51.6 31.6 51.6C37.3333 51.6 41.9 50.5 45.3 48.3C48.7667 46.1 50.5333 43.2667 50.6 39.8C50.6667 37.2667 49.9 35.1667 48.3 33.5C46.7 31.7667 44.5 30.4667 41.7 29.6C38.9 28.7333 35.6667 28.3 32 28.3ZM96.3266 61.6C91.1932 61.6 86.6266 60.7 82.6266 58.9C78.6932 57.0333 75.6266 54.4667 73.4266 51.2C71.2266 47.9333 70.1266 44.1 70.1266 39.7C70.1932 35.1667 71.4599 31.2667 73.9266 28C76.3932 24.7333 79.9599 22.2333 84.6266 20.5C89.2932 18.7 94.9266 17.8 101.527 17.8C108.193 17.8 113.893 18.6333 118.627 20.3C123.427 21.9667 127.093 24.4 129.627 27.6C132.227 30.7333 133.493 34.6 133.427 39.2C133.427 40.9333 133.127 42.7667 132.527 44.7C131.927 46.6333 130.893 48.7333 129.427 51C129.227 51.3333 128.66 52.2 127.727 53.6C126.86 54.9333 125.727 56.6 124.327 58.6C122.993 60.6 121.527 62.7667 119.927 65.1C118.393 67.3667 116.86 69.6 115.327 71.8C113.793 74.0667 112.393 76.1 111.127 77.9C109.86 79.7667 108.827 81.2333 108.027 82.3C107.293 83.4333 106.927 84 106.927 84H90.4266L124.127 42.1L128.127 39.1C125.527 42.5667 123.027 45.7 120.627 48.5C118.227 51.2333 115.827 53.6 113.427 55.6C111.027 57.5333 108.427 59.0333 105.627 60.1C102.827 61.1 99.7266 61.6 96.3266 61.6ZM101.527 28.3C96.0599 28.3 91.6932 29.2667 88.4266 31.2C85.2266 33.1333 83.5932 36.0333 83.5266 39.9C83.4599 43.6333 84.9932 46.5333 88.1266 48.6C91.3266 50.6 95.6599 51.6 101.127 51.6C106.86 51.6 111.427 50.5 114.827 48.3C118.293 46.1 120.06 43.2667 120.127 39.8C120.193 37.2667 119.427 35.1667 117.827 33.5C116.227 31.7667 114.027 30.4667 111.227 29.6C108.427 28.7333 105.193 28.3 101.527 28.3ZM157.153 57.6V69H142.053V57.6H157.153ZM192.802 61.6C187.668 61.6 183.102 60.7 179.102 58.9C175.168 57.0333 172.102 54.4667 169.902 51.2C167.702 47.9333 166.602 44.1 166.602 39.7C166.668 35.1667 167.935 31.2667 170.402 28C172.868 24.7333 176.435 22.2333 181.102 20.5C185.768 18.7 191.402 17.8 198.002 17.8C204.668 17.8 210.368 18.6333 215.102 20.3C219.902 21.9667 223.568 24.4 226.102 27.6C228.702 30.7333 229.968 34.6 229.902 39.2C229.902 40.9333 229.602 42.7667 229.002 44.7C228.402 46.6333 227.368 48.7333 225.902 51C225.702 51.3333 225.135 52.2 224.202 53.6C223.335 54.9333 222.202 56.6 220.802 58.6C219.468 60.6 218.002 62.7667 216.402 65.1C214.868 67.3667 213.335 69.6 211.802 71.8C210.268 74.0667 208.868 76.1 207.602 77.9C206.335 79.7667 205.302 81.2333 204.502 82.3C203.768 83.4333 203.402 84 203.402 84H186.902L220.602 42.1L224.602 39.1C222.002 42.5667 219.502 45.7 217.102 48.5C214.702 51.2333 212.302 53.6 209.902 55.6C207.502 57.5333 204.902 59.0333 202.102 60.1C199.302 61.1 196.202 61.6 192.802 61.6ZM198.002 28.3C192.535 28.3 188.168 29.2667 184.902 31.2C181.702 33.1333 180.068 36.0333 180.002 39.9C179.935 43.6333 181.468 46.5333 184.602 48.6C187.802 50.6 192.135 51.6 197.602 51.6C203.335 51.6 207.902 50.5 211.302 48.3C214.768 46.1 216.535 43.2667 216.602 39.8C216.668 37.2667 215.902 35.1667 214.302 33.5C212.702 31.7667 210.502 30.4667 207.702 29.6C204.902 28.7333 201.668 28.3 198.002 28.3ZM255.328 35.7C251.528 35.7 248.195 35.0333 245.328 33.7C242.528 32.3667 240.361 30.4667 238.828 28C237.295 25.5333 236.528 22.6 236.528 19.2C236.528 13.9333 238.228 9.86667 241.628 7C245.028 4.06666 249.595 2.6 255.328 2.6C261.061 2.6 265.595 4.06666 268.928 7C272.328 9.86667 274.028 13.9333 274.028 19.2C274.028 22.6 273.261 25.5333 271.728 28C270.195 30.4667 268.028 32.3667 265.228 33.7C262.428 35.0333 259.128 35.7 255.328 35.7ZM255.328 27.5C257.861 27.5 259.895 26.7667 261.428 25.3C263.028 23.7667 263.828 21.7333 263.828 19.2C263.828 16.6 263.028 14.5667 261.428 13.1C259.895 11.5667 257.861 10.8 255.328 10.8C252.728 10.8 250.628 11.5667 249.028 13.1C247.495 14.5667 246.728 16.6 246.728 19.2C246.728 21.7333 247.495 23.7667 249.028 25.3C250.628 26.7667 252.728 27.5 255.328 27.5ZM304.728 70.2C298.995 70.2 294.428 68.7667 291.028 65.9C287.628 62.9667 285.928 58.9 285.928 53.7C285.928 48.5 287.628 44.4333 291.028 41.5C294.428 38.5667 298.995 37.1 304.728 37.1C310.395 37.1 314.895 38.5667 318.228 41.5C321.628 44.4333 323.328 48.5 323.328 53.7C323.328 58.9 321.628 62.9667 318.228 65.9C314.895 68.7667 310.395 70.2 304.728 70.2ZM304.728 62C307.261 62 309.295 61.2667 310.828 59.8C312.428 58.3333 313.228 56.3 313.228 53.7C313.228 51.1667 312.428 49.1333 310.828 47.6C309.295 46.0667 307.261 45.3 304.728 45.3C302.128 45.3 300.028 46.0667 298.428 47.6C296.895 49.0667 296.128 51.1 296.128 53.7C296.128 56.3 296.895 58.3333 298.428 59.8C300.028 61.2667 302.128 62 304.728 62ZM294.728 0.399995L300.128 3.4L261.928 72.4L256.728 69.2L294.728 0.399995Z" fill="#19508d"/>
</svg>
