<svg width="19" height="19" viewBox="0 0 19 19" fill="none" xmlns="http://www.w3.org/2000/svg">
<g id="check-circle">
<path id="Vector" d="M10.9669 13.3978C10.9669 13.5148 10.9204 13.627 10.8377 13.7098C10.755 13.7925 10.6427 13.839 10.5257 13.839C10.2527 13.839 9.99088 13.7305 9.79783 13.5375C9.60478 13.3444 9.49633 13.0826 9.49633 12.8096V9.86841C9.49633 9.8294 9.48083 9.792 9.45325 9.76442C9.42567 9.73684 9.38827 9.72135 9.34927 9.72135C9.23226 9.72135 9.12004 9.67487 9.03731 9.59213C8.95457 9.50939 8.90809 9.39718 8.90809 9.28017C8.90809 9.16316 8.95457 9.05095 9.03731 8.96821C9.12004 8.88548 9.23226 8.83899 9.34927 8.83899C9.62228 8.83899 9.88412 8.94745 10.0772 9.1405C10.2702 9.33355 10.3787 9.59539 10.3787 9.86841V12.8096C10.3787 12.8486 10.3942 12.886 10.4218 12.9136C10.4493 12.9411 10.4867 12.9566 10.5257 12.9566C10.6427 12.9566 10.755 13.0031 10.8377 13.0859C10.9204 13.1686 10.9669 13.2808 10.9669 13.3978ZM9.64338 7.36841C9.78881 7.36841 9.93097 7.32528 10.0519 7.24449C10.1728 7.16369 10.2671 7.04886 10.3227 6.9145C10.3784 6.78014 10.3929 6.6323 10.3645 6.48966C10.3362 6.34703 10.2661 6.21601 10.1633 6.11318C10.0605 6.01035 9.92947 5.94032 9.78683 5.91195C9.6442 5.88358 9.49636 5.89814 9.362 5.95379C9.22764 6.00944 9.1128 6.10369 9.03201 6.22461C8.95121 6.34552 8.90809 6.48769 8.90809 6.63311C8.90809 6.82812 8.98556 7.01515 9.12345 7.15304C9.26135 7.29094 9.44837 7.36841 9.64338 7.36841ZM17.4375 9.86841C17.4375 11.3518 16.9976 12.8018 16.1735 14.0352C15.3494 15.2686 14.1781 16.2298 12.8076 16.7975C11.4372 17.3652 9.92918 17.5137 8.47432 17.2243C7.01947 16.9349 5.6831 16.2206 4.6342 15.1717C3.58531 14.1228 2.871 12.7864 2.58161 11.3316C2.29222 9.87673 2.44075 8.36873 3.00841 6.99828C3.57606 5.62784 4.53736 4.4565 5.77073 3.63239C7.00409 2.80828 8.45414 2.36841 9.9375 2.36841C11.9259 2.37074 13.8322 3.16167 15.2382 4.56769C16.6442 5.9737 17.4352 7.88 17.4375 9.86841ZM16.5551 9.86841C16.5551 8.55956 16.167 7.28011 15.4399 6.19184C14.7127 5.10357 13.6792 4.25537 12.47 3.7545C11.2607 3.25363 9.93016 3.12257 8.64646 3.37792C7.36277 3.63326 6.18361 4.26353 5.25812 5.18902C4.33263 6.11452 3.70236 7.29367 3.44701 8.57737C3.19167 9.86107 3.32272 11.1917 3.82359 12.4009C4.32447 13.6101 5.17267 14.6436 6.26093 15.3708C7.3492 16.0979 8.62865 16.4861 9.9375 16.4861C11.692 16.4841 13.3741 15.7863 14.6147 14.5456C15.8554 13.305 16.5532 11.6229 16.5551 9.86841Z" fill="#19508d"/>
</g>
</svg>
