<svg width="114" height="114" viewBox="0 0 114 114" fill="none" xmlns="http://www.w3.org/2000/svg">
<rect x="57" width="80" height="80" rx="22" transform="rotate(45 57 0)" fill="url(#paint0_linear_360_2652)"/>
<path d="M67.1895 52.0299C69.1136 51.7596 70.595 50.1099 70.5991 48.1113C70.5991 46.1417 69.1632 44.5086 67.2805 44.1996" stroke="white" stroke-width="1.5" stroke-linecap="round" stroke-linejoin="round"/>
<path d="M69.7285 56.6556C71.592 56.9342 72.8927 57.5866 72.8927 58.9314C72.8927 59.857 72.2802 60.4583 71.2899 60.8363" stroke="white" stroke-width="1.5" stroke-linecap="round" stroke-linejoin="round"/>
<path fill-rule="evenodd" clip-rule="evenodd" d="M58.9127 57.226C54.4796 57.226 50.6934 57.8977 50.6934 60.5804C50.6934 63.2618 54.4561 63.9528 58.9127 63.9528C63.3458 63.9528 67.1306 63.288 67.1306 60.6039C67.1306 57.9197 63.3692 57.226 58.9127 57.226Z" stroke="white" stroke-width="1.5" stroke-linecap="round" stroke-linejoin="round"/>
<path fill-rule="evenodd" clip-rule="evenodd" d="M58.9126 53.3971C61.8216 53.3971 64.1802 51.0399 64.1802 48.1295C64.1802 45.2206 61.8216 42.8619 58.9126 42.8619C56.0037 42.8619 53.6451 45.2206 53.6451 48.1295C53.634 51.0288 55.9747 53.3875 58.874 53.3971H58.9126Z" stroke="white" stroke-width="1.5" stroke-linecap="round" stroke-linejoin="round"/>
<path d="M50.6338 52.0299C48.7083 51.7596 47.2283 50.1099 47.2241 48.1113C47.2241 46.1417 48.66 44.5086 50.5427 44.1996" stroke="white" stroke-width="1.5" stroke-linecap="round" stroke-linejoin="round"/>
<path d="M48.0948 56.6556C46.2314 56.9342 44.9307 57.5866 44.9307 58.9314C44.9307 59.857 45.5431 60.4583 46.5334 60.8363" stroke="white" stroke-width="1.5" stroke-linecap="round" stroke-linejoin="round"/>
<path d="M57.6897 68.724L58.6187 71.5832L61.6251 71.5832L59.1929 73.3503L60.1219 76.2096L57.6897 74.4425L55.2575 76.2096L56.1865 73.3503L53.7543 71.5832L56.7607 71.5832L57.6897 68.724Z" fill="white"/>
<path d="M47.3448 68.724L48.1189 71.1067H50.6243L48.5974 72.5793L49.3716 74.962L47.3448 73.4894L45.3179 74.962L46.0921 72.5793L44.0653 71.1067H46.5706L47.3448 68.724Z" fill="white"/>
<path d="M66.6553 68.724L67.4295 71.1067H69.9348L67.908 72.5793L68.6822 74.962L66.6553 73.4894L64.6285 74.962L65.4026 72.5793L63.3758 71.1067H65.8811L66.6553 68.724Z" fill="white"/>
<path d="M39.7586 65.9653L40.378 67.8715L42.3822 67.8715L40.7607 69.0496L41.3801 70.9557L39.7586 69.7777L38.1371 70.9557L38.7565 69.0496L37.135 67.8715L39.1393 67.8715L39.7586 65.9653Z" fill="white"/>
<path d="M74.2415 65.9653L74.8609 67.8715L76.8651 67.8715L75.2437 69.0496L75.863 70.9557L74.2415 69.7777L72.6201 70.9557L73.2394 69.0496L71.6179 67.8715L73.6222 67.8715L74.2415 65.9653Z" fill="white"/>
<defs>
<linearGradient id="paint0_linear_360_2652" x1="57" y1="14.5455" x2="164.878" y2="64.7152" gradientUnits="userSpaceOnUse">
<stop stop-color="#751A87"/>
<stop offset="1" stop-color="#6A3775" stop-opacity="0"/>
</linearGradient>
</defs>
</svg>
