<svg width="114" height="114" viewBox="0 0 114 114" fill="none" xmlns="http://www.w3.org/2000/svg">
<rect x="57" width="80" height="80" rx="22" transform="rotate(45 57 0)" fill="url(#paint0_linear_360_2654)"/>
<path d="M57 42V70.75M57 70.75C54.5467 70.75 52.1967 71.1917 50.025 72M57 70.75C59.4533 70.75 61.8033 71.1917 63.975 72M68.25 45.2833C64.5229 44.7602 60.7637 44.4984 57 44.5C53.1817 44.5 49.425 44.7667 45.75 45.2833M68.25 45.2833C69.9333 45.5217 71.6 45.8117 73.25 46.15M40.75 46.15C42.4 45.8117 44.0667 45.5217 45.75 45.2833M68.25 45.2833L72.6167 63.16C72.82 63.9917 72.44 64.8733 71.635 65.1633C70.5491 65.5531 69.4038 65.7516 68.25 65.75C67.0962 65.7516 65.9509 65.5531 64.865 65.1633C64.06 64.8733 63.68 63.9917 63.8817 63.16L68.25 45.285V45.2833ZM45.75 45.2833L50.1167 63.16C50.32 63.9917 49.94 64.8733 49.135 65.1633C48.0491 65.5531 46.9038 65.7515 45.75 65.75C44.5962 65.7515 43.4509 65.5531 42.365 65.1633C41.56 64.8733 41.18 63.9917 41.3817 63.16L45.75 45.285V45.2833Z" stroke="white" stroke-width="1.5" stroke-linecap="round" stroke-linejoin="round"/>
<defs>
<linearGradient id="paint0_linear_360_2654" x1="57" y1="14.5455" x2="164.878" y2="64.7152" gradientUnits="userSpaceOnUse">
<stop stop-color="#751A87"/>
<stop offset="1" stop-color="#6A3775" stop-opacity="0"/>
</linearGradient>
</defs>
</svg>
