<svg width="109" height="27" viewBox="0 0 109 27" fill="none" xmlns="http://www.w3.org/2000/svg">
<path d="M47.0833 9.60704C46.7268 9.31563 46.3115 9.09817 45.8634 8.9683C45.3696 8.82819 44.857 8.75931 44.3422 8.7639C43.7762 8.75836 43.2142 8.85465 42.6851 9.04778C42.2097 9.21776 41.7696 9.46769 41.3854 9.78589C41.032 10.0803 40.7325 10.4296 40.4993 10.8192C40.4245 10.9436 40.3584 11.0726 40.3014 11.2053C40.2614 11.0357 40.2071 10.8696 40.1389 10.7085C39.9647 10.2876 39.6882 9.91283 39.3325 9.61556C38.9775 9.3236 38.563 9.10605 38.1156 8.97681C37.6208 8.83671 37.1072 8.76783 36.5914 8.77241C36.0109 8.76582 35.4342 8.86205 34.89 9.0563C34.4121 9.22504 33.9713 9.47828 33.5903 9.80293C33.2427 10.1015 32.9492 10.4536 32.7219 10.8448C32.6152 11.035 32.5253 11.2335 32.4531 11.4381V8.9683H30.1255V17.5275H32.4531V12.4317C32.5526 12.1954 32.6923 11.9766 32.8666 11.7845C33.2038 11.4154 33.6186 11.1194 34.0836 10.9158C34.6106 10.6802 35.1861 10.5618 35.7673 10.5694C36.5904 10.5694 37.1812 10.7388 37.5396 11.0776C37.898 11.4163 38.0801 11.9472 38.086 12.6702V17.5105H40.4136V12.2756C40.4136 12.1961 40.4136 12.1251 40.4136 12.0485C40.4778 11.9571 40.5468 11.869 40.6204 11.7845C40.9581 11.4161 41.3728 11.1201 41.8373 10.9158C42.3653 10.6798 42.9418 10.5615 43.524 10.5694C44.3471 10.5694 44.9438 10.7388 45.314 11.0776C45.6842 11.4163 45.8693 11.9472 45.8693 12.6702V17.5105H48.1999V12.2756C48.2122 11.7367 48.1117 11.2009 47.9045 10.7C47.7219 10.2798 47.4409 9.90576 47.0833 9.60704Z" fill="white"/>
<path d="M54.4745 15.0738L51.6583 8.76367H49.2964L53.3824 17.2769L51.5031 20.8139H53.8142L59.7034 8.76367H57.3246L54.4745 15.0738Z" fill="white"/>
<path d="M70.957 8.76367H68.1502L65.7093 11.6036L63.0753 8.76367H60.251L64.3777 13.0947L60.251 17.5275H63.0753L65.6596 14.4899L68.3814 17.5275H71.2058L66.9942 12.9901L70.957 8.76367Z" fill="white"/>
<path d="M80.4608 9.2894C79.5338 8.91353 78.5285 8.73519 77.5182 8.76737C76.4817 8.74497 75.4515 8.92271 74.4922 9.2894C73.6785 9.6007 72.9784 10.1242 72.4759 10.7972C71.9815 11.4984 71.73 12.3242 71.7551 13.163C71.73 14.0016 71.9884 14.8263 72.4938 15.5205C73.0152 16.1896 73.73 16.7067 74.5548 17.0116C75.5199 17.3686 76.5515 17.5432 77.5897 17.5253C78.4747 17.5465 79.3563 17.4147 80.1898 17.1365C80.8388 16.9183 81.4199 16.5539 81.8815 16.0758C82.2875 15.643 82.5529 15.1113 82.6469 14.543H80.3714C80.1928 14.9602 79.8466 15.296 79.4065 15.4788C78.8228 15.7365 78.1815 15.8603 77.5361 15.8398C76.938 15.8541 76.3433 15.751 75.7908 15.5371C75.3359 15.3555 74.9382 15.0688 74.6352 14.7041C74.3575 14.3648 74.1799 13.9637 74.1199 13.5406H82.6826C82.7762 12.6222 82.612 11.6969 82.2061 10.8555C81.8322 10.1636 81.2166 9.61126 80.4608 9.2894ZM74.248 12.2689C74.4198 11.7314 74.7915 11.2687 75.2964 10.9638C75.9342 10.622 76.6558 10.4393 77.3914 10.4335C78.127 10.4276 78.8519 10.5988 79.4958 10.9305C79.7385 11.0781 79.9419 11.2754 80.0905 11.5073C80.2392 11.7392 80.3291 11.9997 80.3536 12.2689H74.248Z" fill="white"/>
<path d="M86.5425 5.47754H84.3516V17.5278H86.5425V5.47754Z" fill="white"/>
<path d="M91.4722 5.47754H89.2812V17.5278H91.4722V5.47754Z" fill="white"/>
<path d="M95.854 8.76367H93.6631V17.5275H95.854V8.76367Z" fill="white"/>
<path d="M96.4018 4.92969H93.6631V7.12064H96.4018V4.92969Z" fill="white"/>
<path d="M106.732 8.96307V11.4794C106.679 11.2908 106.614 11.1053 106.539 10.9239C106.276 10.2775 105.81 9.72688 105.207 9.34913C104.479 8.93057 103.641 8.72867 102.795 8.76864C101.951 8.75653 101.116 8.9474 100.366 9.32413C99.6673 9.67299 99.0805 10.2003 98.6694 10.849C98.2601 11.5492 98.0449 12.34 98.0449 13.1445C98.0449 13.949 98.2601 14.7398 98.6694 15.4401C99.0715 16.0883 99.6494 16.6175 100.34 16.9705C101.06 17.3438 101.866 17.5349 102.683 17.5259C103.362 17.5437 104.035 17.4077 104.65 17.1288C105.169 16.8849 105.622 16.5262 105.971 16.0817C106.303 15.6559 106.557 15.1776 106.72 14.668L106.737 14.6041V15.179C106.737 15.5067 106.737 15.8373 106.772 16.1733C106.806 16.5094 106.835 16.8982 106.892 17.3371H109V8.96307H106.732ZM106.33 14.5568C106.05 14.973 105.651 15.3011 105.181 15.5012C104.621 15.7377 104.015 15.8524 103.404 15.8373C102.853 15.8488 102.307 15.7336 101.81 15.5012C101.37 15.2918 100.999 14.9676 100.74 14.5652C100.477 14.1412 100.345 13.6538 100.358 13.1598C100.342 12.7994 100.405 12.4397 100.543 12.1046C100.681 11.7695 100.891 11.4665 101.159 11.2156C101.693 10.7267 102.441 10.4823 103.404 10.4823C104.009 10.4686 104.611 10.5745 105.172 10.7934C105.64 10.9807 106.04 11.2977 106.321 11.7044C106.605 12.1399 106.748 12.6478 106.732 13.1626C106.74 13.6552 106.6 14.1396 106.33 14.5568Z" fill="white"/>
<path d="M23.8957 21.716L26.2915 17.5886L23.5763 13.1428L26.2915 8.80312L23.8343 4.43399H18.3795L15.6152 0H10.6087L7.90587 4.48705H2.54929L0 8.70288L2.87486 13.1428L0 17.7949L2.54314 21.8044H7.90587L10.6087 26.2915H15.7196L18.3119 21.6924L23.8957 21.716ZM13.0782 23.2195L10.0067 18.0426H4.01129L7.17486 13.2489L4.01744 8.355H9.98216L13.0536 3.3078L15.9223 8.29604H22.0652L18.9077 13.1723L22.0652 18.0426H15.8854L13.0782 23.2195Z" fill="#23E47F"/>
</svg>
