<svg width="114" height="114" viewBox="0 0 114 114" fill="none" xmlns="http://www.w3.org/2000/svg">
<rect x="56.5684" width="80" height="80" rx="22" transform="rotate(45 56.5684 0)" fill="url(#paint0_linear_360_2653)"/>
<path d="M44.5163 40.0075L42.7563 41.765L45.375 44.3825L47.1325 42.625L44.515 40.0075H44.5163ZM67.485 40.0075L64.8663 42.625L66.625 44.3825L69.2425 41.7663L67.4837 40.0075H67.485ZM56 40.7875C55.5875 40.7925 55.17 40.8163 54.75 40.8675C54.7375 40.8675 54.725 40.865 54.7125 40.8675C49.6425 41.4488 45.6075 45.545 44.9062 50.5925C44.3463 54.655 46.0212 58.3388 48.8125 60.7113C49.9543 61.6857 50.7265 63.0228 51 64.4988V71.9988H53.85C54.285 72.745 55.0788 73.2488 56 73.2488C56.9212 73.2488 57.715 72.745 58.15 71.9988H61V66.9988H61.1175V65.5138C61.1175 63.6813 62.07 61.8338 63.6175 60.3975C65.6875 58.325 67.25 55.3813 67.25 52C67.25 45.825 62.1675 40.73 56 40.7875ZM56 43.2875C60.8312 43.22 64.75 47.175 64.75 52C64.75 54.6175 63.5375 56.9225 61.8587 58.6L61.8988 58.64C60.2305 60.1784 59.1517 62.251 58.8487 64.5H53.3812C53.1062 62.3575 52.1875 60.2838 50.4513 58.7963C48.2425 56.9213 46.9263 54.0963 47.3663 50.9063C47.9125 46.9688 51.1075 43.8025 55.0225 43.3688C55.3457 43.3237 55.6712 43.297 55.9975 43.2888L56 43.2875ZM38.5 52V54.5H42.25V52H38.5ZM69.75 52V54.5H73.5V52H69.75ZM45.375 62.1175L42.7575 64.7338L44.5163 66.4925L47.1312 63.875L45.375 62.1175ZM66.625 62.1175L64.8675 63.875L67.4837 66.4925L69.2425 64.7338L66.625 62.1175ZM53.5 67H58.5V69.5H53.5V67Z" fill="white"/>
<defs>
<linearGradient id="paint0_linear_360_2653" x1="56.5684" y1="14.5455" x2="164.446" y2="64.7152" gradientUnits="userSpaceOnUse">
<stop stop-color="#751A87"/>
<stop offset="1" stop-color="#6A3775" stop-opacity="0"/>
</linearGradient>
</defs>
</svg>
