<svg width="199" height="48" viewBox="0 0 199 48" fill="none" xmlns="http://www.w3.org/2000/svg">
<path d="M85.9597 17.5397C85.3088 17.0077 84.5506 16.6107 83.7325 16.3736C82.8311 16.1178 81.8951 15.992 80.9552 16.0004C79.922 15.9903 78.8959 16.1661 77.9299 16.5187C77.0621 16.829 76.2586 17.2853 75.5571 17.8663C74.9119 18.4038 74.365 19.0415 73.9393 19.7528C73.8027 19.9798 73.682 20.2153 73.578 20.4577C73.5051 20.1481 73.4059 19.8447 73.2814 19.5507C72.9633 18.7822 72.4585 18.098 71.8092 17.5553C71.161 17.0223 70.4043 16.6251 69.5874 16.3891C68.6841 16.1334 67.7463 16.0076 66.8047 16.016C65.745 16.0039 64.692 16.1796 63.6985 16.5342C62.826 16.8423 62.0212 17.3047 61.3257 17.8974C60.691 18.4424 60.1552 19.0853 59.7402 19.7995C59.5455 20.1468 59.3813 20.5091 59.2495 20.8827V16.3736H55V32H59.2495V22.6967C59.4311 22.2652 59.6862 21.8659 60.0045 21.515C60.62 20.8413 61.3773 20.3007 62.2263 19.9291C63.1884 19.4989 64.2391 19.2828 65.3001 19.2967C66.8029 19.2967 67.8815 19.606 68.5358 20.2245C69.1901 20.843 69.5226 21.8122 69.5334 23.1321V31.9689H73.7829V22.4116C73.7829 22.2665 73.7829 22.137 73.7829 21.997C73.9001 21.8302 74.026 21.6694 74.1604 21.515C74.7771 20.8424 75.5341 20.3021 76.3822 19.9291C77.3461 19.4983 78.3986 19.2822 79.4615 19.2967C80.9642 19.2967 82.0536 19.606 82.7295 20.2245C83.4054 20.843 83.7433 21.8122 83.7433 23.1321V31.9689H87.9982V22.4116C88.0206 21.4278 87.8372 20.4496 87.4589 19.5351C87.1256 18.768 86.6126 18.0851 85.9597 17.5397V17.5397Z" fill="white"/>
<path d="M99.4536 27.5203L94.3121 16H90L97.4599 31.5426L94.0287 38H98.2481L109 16H104.657L99.4536 27.5203Z" fill="white"/>
<path d="M129.546 16H124.422L119.965 21.1847L115.156 16H110L117.534 23.9071L110 32H115.156L119.874 26.4544L124.844 32H130L122.311 23.7161L129.546 16Z" fill="white"/>
<path d="M146.897 16.9598C145.205 16.2736 143.369 15.948 141.525 16.0067C139.632 15.9659 137.752 16.2903 136 16.9598C134.515 17.5282 133.237 18.4839 132.319 19.7125C131.416 20.9927 130.957 22.5004 131.003 24.0318C130.957 25.5628 131.429 27.0685 132.352 28.3358C133.304 29.5574 134.609 30.5016 136.114 31.0581C137.876 31.7099 139.76 32.0287 141.655 31.9959C143.271 32.0348 144.88 31.7942 146.402 31.2862C147.587 30.8878 148.648 30.2225 149.491 29.3497C150.232 28.5594 150.717 27.5888 150.888 26.5513H146.734C146.408 27.313 145.776 27.9259 144.972 28.2597C143.907 28.7302 142.736 28.9562 141.557 28.9188C140.465 28.945 139.38 28.7567 138.371 28.3662C137.541 28.0345 136.814 27.5111 136.261 26.8453C135.754 26.2259 135.43 25.4936 135.321 24.7212H150.953C151.124 23.0445 150.824 21.3551 150.083 19.819C149.401 18.5559 148.277 17.5474 146.897 16.9598V16.9598ZM135.554 22.3994C135.868 21.4182 136.547 20.5734 137.468 20.0167C138.633 19.3927 139.95 19.0592 141.293 19.0486C142.636 19.0379 143.96 19.3504 145.135 19.9559C145.578 20.2254 145.95 20.5856 146.221 21.009C146.492 21.4324 146.657 21.9079 146.701 22.3994H135.554Z" fill="white"/>
<path d="M158 10H154V32H158V10Z" fill="white"/>
<path d="M167 10H163V32H167V10Z" fill="white"/>
<path d="M175 16H171V32H175V16Z" fill="white"/>
<path d="M176 9H171V13H176V9Z" fill="white"/>
<path d="M194.859 16.364V20.9581C194.762 20.6138 194.645 20.2751 194.508 19.944C194.027 18.7638 193.176 17.7585 192.076 17.0689C190.748 16.3047 189.216 15.9361 187.673 16.0091C186.13 15.987 184.607 16.3354 183.238 17.0232C181.962 17.6601 180.891 18.6229 180.14 19.8071C179.393 21.0856 179 22.5293 179 23.9981C179 25.4668 179.393 26.9106 180.14 28.189C180.874 29.3724 181.929 30.3387 183.191 30.983C184.505 31.6646 185.977 32.0135 187.468 31.9972C188.707 32.0297 189.937 31.7813 191.059 31.2721C192.007 30.8268 192.833 30.1719 193.47 29.3604C194.077 28.5831 194.54 27.7098 194.838 26.7794L194.869 26.6627V27.7124C194.869 28.3107 194.869 28.9142 194.932 29.5277C194.995 30.1413 195.048 30.8512 195.153 31.6524H199V16.364H194.859ZM194.125 26.5765C193.614 27.3362 192.886 27.9354 192.028 28.3006C191.006 28.7323 189.899 28.9418 188.784 28.9142C187.778 28.9353 186.781 28.725 185.875 28.3006C185.071 27.9183 184.394 27.3264 183.919 26.5918C183.441 25.8177 183.199 24.9278 183.222 24.0259C183.193 23.3679 183.308 22.7113 183.56 22.0995C183.812 21.4877 184.196 20.9345 184.685 20.4764C185.66 19.584 187.026 19.1377 188.784 19.1377C189.889 19.1127 190.988 19.306 192.013 19.7057C192.866 20.0475 193.596 20.6263 194.109 21.3689C194.629 22.1639 194.89 23.0911 194.859 24.031C194.875 24.9304 194.62 25.8148 194.125 26.5765V26.5765Z" fill="white"/>
<path d="M43.6262 39.6465L48 32.1112L43.043 23.9946L48 16.0718L43.514 8.09508H33.5552L28.5084 0H19.3682L14.4336 8.19196H4.6542L0 15.8887L5.24859 23.9946L0 32.488L4.64297 39.808H14.4336L19.3682 48H28.6991L33.4318 39.6035L43.6262 39.6465ZM23.8767 42.3915L18.2692 32.9401H7.32336L13.0991 24.1884L7.33459 15.2536H18.2243L23.8318 6.03901L29.0692 15.146H40.2841L34.5196 24.0484L40.2841 32.9401H29.0019L23.8767 42.3915Z" fill="white"/>
</svg>
