<svg width="24" height="18" viewBox="0 0 24 18" fill="none" xmlns="http://www.w3.org/2000/svg">
<path d="M23.9039 1.05144C23.7485 0.0486391 23.1668 0.0712023 22.6504 0.138891C21.9609 1.04893 21.472 1.96149 20.7349 2.58072C20.1262 3.0529 19.3817 3.31661 18.6114 3.33282C16.4077 3.36541 7.59278 3.36541 5.38905 3.33282C4.61882 3.31661 3.87427 3.0529 3.26555 2.58072C2.52846 1.96149 2.03958 1.04893 1.35013 0.138891C0.848715 0.0712023 0.254534 0.0561601 0.0965879 1.05144C-0.1444 2.60938 0.0678201 4.20375 0.707939 5.64442C1.34806 7.08508 2.38906 8.31124 3.70679 9.17665L7.15905 11.2123L5.5144 11.1146C6.58994 13.2606 7.63791 15.4191 8.70342 17.5701C8.93909 17.164 9.17476 16.7528 9.40541 16.3417C9.42978 16.2888 9.46972 16.2446 9.51991 16.215C9.57009 16.1854 9.62811 16.1719 9.6862 16.1762C10.4534 16.1762 13.5371 16.1762 14.3043 16.1762C14.3624 16.1715 14.4206 16.1849 14.4708 16.2145C14.5211 16.2441 14.561 16.2885 14.5851 16.3417C14.8182 16.7528 15.0514 17.164 15.287 17.5701C16.3526 15.4191 17.4005 13.2606 18.4761 11.1146L16.8339 11.2123L20.2837 9.17665C21.6037 8.31298 22.6471 7.08745 23.2891 5.64657C23.9311 4.20569 24.1445 2.61041 23.9039 1.05144Z" fill="white"/>
</svg>
