<svg width="24" height="24" viewBox="0 0 24 24" fill="none" xmlns="http://www.w3.org/2000/svg">
<g id="Iconly/Bold/Message">
<g id="Message">
<path id="Message_2" fill-rule="evenodd" clip-rule="evenodd" d="M16.9394 3.00012C18.2804 3.00012 19.5704 3.53012 20.5194 4.48112C21.4694 5.43012 22.0004 6.71012 22.0004 8.05012V15.9501C22.0004 18.7401 19.7304 21.0001 16.9394 21.0001H7.0604C4.2694 21.0001 2.0004 18.7401 2.0004 15.9501V8.05012C2.0004 5.26012 4.2594 3.00012 7.0604 3.00012H16.9394ZM18.5304 9.54012L18.6104 9.46012C18.8494 9.17012 18.8494 8.75012 18.5994 8.46012C18.4604 8.31112 18.2694 8.22012 18.0704 8.20012C17.8604 8.18912 17.6604 8.26012 17.5094 8.40012L13.0004 12.0001C12.4204 12.4811 11.5894 12.4811 11.0004 12.0001L6.5004 8.40012C6.1894 8.17012 5.7594 8.20012 5.5004 8.47012C5.2304 8.74012 5.2004 9.17012 5.4294 9.47012L5.5604 9.60012L10.1104 13.1501C10.6704 13.5901 11.3494 13.8301 12.0604 13.8301C12.7694 13.8301 13.4604 13.5901 14.0194 13.1501L18.5304 9.54012Z" fill="white"/>
</g>
</g>
</svg>
