<svg xmlns="http://www.w3.org/2000/svg" width="119" height="25" viewBox="0 0 119 25" fill="none">
<path d="M25.8427 7.45447C25.3063 7.01602 24.6814 6.68883 24.0072 6.49342C23.2643 6.28262 22.4929 6.17898 21.7184 6.18589C20.8669 6.17756 20.0212 6.32243 19.2252 6.61302C18.5099 6.86876 17.8478 7.24481 17.2697 7.72357C16.7379 8.16653 16.2872 8.69207 15.9364 9.27832C15.8238 9.4654 15.7244 9.65947 15.6386 9.85923C15.5786 9.60407 15.4968 9.35407 15.3942 9.11175C15.1321 8.47841 14.7161 7.91455 14.1809 7.46729C13.6468 7.02801 13.0231 6.70069 12.3499 6.50624C11.6055 6.29545 10.8327 6.19181 10.0566 6.1987C9.18328 6.18877 8.31549 6.33357 7.49673 6.62583C6.77767 6.87972 6.11442 7.26074 5.54125 7.74919C5.01822 8.19841 4.57664 8.72818 4.23464 9.31678C4.07415 9.60298 3.93887 9.90159 3.83021 10.2095V6.49342H0.328125V19.3715H3.83021V11.7044C3.97986 11.3489 4.19014 11.0197 4.4524 10.7306C4.9597 10.1754 5.58378 9.72987 6.28344 9.42356C7.07636 9.06908 7.94225 8.89096 8.81668 8.90246C10.0551 8.90246 10.944 9.15731 11.4832 9.66702C12.0225 10.1767 12.2965 10.9755 12.3054 12.0632V19.3458H15.8075V11.4695C15.8075 11.3499 15.8075 11.2431 15.8075 11.1278C15.904 10.9904 16.0079 10.8578 16.1186 10.7306C16.6268 10.1763 17.2507 9.73098 17.9496 9.42356C18.744 9.06859 19.6114 8.89046 20.4873 8.90246C21.7258 8.90246 22.6235 9.15731 23.1805 9.66702C23.7376 10.1767 24.0161 10.9755 24.0161 12.0632V19.3458H27.5226V11.4695C27.5411 10.6587 27.39 9.85256 27.0782 9.09894C26.8035 8.46669 26.3807 7.90392 25.8427 7.45447Z" fill="white"/>
<path d="M36.9628 15.6797L32.7256 6.18555H29.1719L35.3197 18.9945L32.492 24.3162H35.9693L44.8302 6.18555H41.251L36.9628 15.6797Z" fill="white"/>
<path d="M61.7644 6.18555H57.5414L53.8688 10.4584L49.9057 6.18555H45.6562L51.8652 12.702L45.6562 19.3715H49.9057L53.794 14.8012L57.8892 19.3715H62.1387L55.802 12.5445L61.7644 6.18555Z" fill="white"/>
<path d="M76.0619 6.97655C74.6672 6.41102 73.1546 6.14269 71.6346 6.19111C70.0751 6.15741 68.525 6.42483 67.0817 6.97655C65.8575 7.44493 64.8041 8.23261 64.048 9.24513C63.3042 10.3002 62.9256 11.5427 62.9635 12.8047C62.9257 14.0665 63.3145 15.3073 64.0748 16.3517C64.8595 17.3585 65.9349 18.1366 67.1758 18.5952C68.628 19.1324 70.1801 19.3951 71.7421 19.3681C73.0737 19.4001 74.4001 19.2018 75.6542 18.7832C76.6307 18.4549 77.505 17.9066 78.1995 17.1873C78.8103 16.536 79.2098 15.7361 79.3511 14.8811H75.9275C75.6587 15.5088 75.1378 16.014 74.4756 16.289C73.5975 16.6768 72.6325 16.863 71.6614 16.8322C70.7616 16.8538 69.8669 16.6986 69.0355 16.3768C68.3511 16.1035 67.7528 15.6721 67.2968 15.1234C66.879 14.6129 66.6118 14.0094 66.5216 13.3729H79.4049C79.5456 11.991 79.2985 10.5988 78.6879 9.33287C78.1254 8.29193 77.1991 7.46081 76.0619 6.97655ZM66.7143 11.4594C66.9728 10.6508 67.5321 9.95459 68.2916 9.49581C69.2513 8.98152 70.3369 8.7067 71.4438 8.69792C72.5506 8.68914 73.6412 8.94669 74.6101 9.44568C74.9752 9.66779 75.2812 9.96461 75.5049 10.3135C75.7285 10.6625 75.8638 11.0544 75.9006 11.4594H66.7143Z" fill="white"/>
<path d="M85.2105 1.24023H81.9141V19.3709H85.2105V1.24023Z" fill="white"/>
<path d="M92.6246 1.24023H89.3281V19.3709H92.6246V1.24023Z" fill="white"/>
<path d="M99.2184 6.18555H95.9219V19.3715H99.2184V6.18555Z" fill="white"/>
<path d="M100.042 0.416992H95.9219V3.71347H100.042V0.416992Z" fill="white"/>
<path d="M115.585 6.48555V10.2717C115.506 9.98785 115.409 9.70878 115.296 9.43587C114.899 8.46323 114.199 7.63478 113.292 7.06642C112.197 6.43666 110.935 6.13288 109.663 6.19302C108.392 6.1748 107.136 6.46197 106.008 7.02881C104.957 7.55369 104.074 8.34714 103.455 9.32304C102.839 10.3767 102.516 11.5665 102.516 12.7769C102.516 13.9873 102.839 15.1772 103.455 16.2308C104.06 17.206 104.93 18.0024 105.969 18.5334C107.053 19.0951 108.265 19.3826 109.494 19.3692C110.515 19.3959 111.529 19.1913 112.453 18.7716C113.235 18.4046 113.915 17.8649 114.441 17.1961C114.941 16.5555 115.322 15.8358 115.568 15.0691L115.594 14.9729V15.838C115.594 16.3311 115.594 16.8284 115.646 17.334C115.698 17.8397 115.741 18.4247 115.827 19.085H118.998V6.48555H115.585ZM114.981 14.9019C114.56 15.528 113.959 16.0217 113.253 16.3227C112.41 16.6785 111.498 16.8511 110.579 16.8284C109.749 16.8458 108.928 16.6725 108.181 16.3227C107.519 16.0077 106.961 15.5199 106.57 14.9144C106.175 14.2765 105.976 13.5432 105.995 12.7999C105.971 12.2576 106.066 11.7165 106.274 11.2123C106.482 10.7081 106.797 10.2522 107.201 9.87465C108.004 9.13916 109.13 8.77142 110.579 8.77142C111.489 8.75082 112.395 8.91008 113.24 9.23946C113.943 9.52122 114.544 9.99817 114.968 10.6101C115.396 11.2653 115.611 12.0295 115.585 12.8041C115.598 13.5453 115.388 14.2741 114.981 14.9019Z" fill="white"/>
</svg>