<svg xmlns="http://www.w3.org/2000/svg" width="21" height="21" viewBox="0 0 21 21" fill="none">
  <path d="M19.25 5.25V7.3675C19.25 8.75 18.375 9.625 16.9925 9.625H14V3.50875C14 2.5375 14.7963 1.75 15.7675 1.75C16.7213 1.75875 17.5962 2.14375 18.2262 2.77375C18.8562 3.4125 19.25 4.2875 19.25 5.25Z" stroke="#747474" stroke-width="1.3125" stroke-miterlimit="10" stroke-linecap="round" stroke-linejoin="round"/>
  <path d="M1.75 6.125V18.375C1.75 19.1012 2.5725 19.5125 3.15 19.075L4.64625 17.955C4.99625 17.6925 5.48625 17.7275 5.80125 18.0425L7.25375 19.5038C7.595 19.845 8.155 19.845 8.49625 19.5038L9.96625 18.0338C10.2725 17.7275 10.7625 17.6925 11.1037 17.955L12.6 19.075C13.1775 19.5038 14 19.0925 14 18.375V3.5C14 2.5375 14.7875 1.75 15.75 1.75H6.125H5.25C2.625 1.75 1.75 3.31625 1.75 5.25V6.125Z" stroke="#747474" stroke-width="1.3125" stroke-miterlimit="10" stroke-linecap="round" stroke-linejoin="round"/>
  <path d="M7.875 11.3828H10.5" stroke="#747474" stroke-width="1.3125" stroke-linecap="round" stroke-linejoin="round"/>
  <path d="M7.875 7.88281H10.5" stroke="#747474" stroke-width="1.3125" stroke-linecap="round" stroke-linejoin="round"/>
  <path d="M5.24609 11.375H5.25395" stroke="#747474" stroke-width="1.75" stroke-linecap="round" stroke-linejoin="round"/>
  <path d="M5.24609 7.875H5.25395" stroke="#747474" stroke-width="1.75" stroke-linecap="round" stroke-linejoin="round"/>
</svg>