<svg width="114" height="114" viewBox="0 0 114 114" fill="none" xmlns="http://www.w3.org/2000/svg">
<rect x="57" width="80" height="80" rx="22" transform="rotate(45 57 0)" fill="url(#paint0_linear_360_2655)"/>
<path d="M74.5002 45.75V55.75C74.5002 56.0815 74.3685 56.3995 74.1341 56.6339C73.8997 56.8683 73.5817 57 73.2502 57C72.9187 57 72.6007 56.8683 72.3663 56.6339C72.1319 56.3995 72.0002 56.0815 72.0002 55.75V48.7656L59.1408 61.6406C58.9038 61.8754 58.5838 62.007 58.2502 62.007C57.9166 62.007 57.5966 61.8754 57.3596 61.6406L52.0002 56.2656L41.6408 66.6406C41.4019 66.8717 41.0825 67.0008 40.7502 67.0008C40.4178 67.0008 40.0985 66.8717 39.8596 66.6406C39.6248 66.4036 39.4932 66.0836 39.4932 65.75C39.4932 65.4164 39.6248 65.0964 39.8596 64.8594L51.1096 53.6094C51.3466 53.3746 51.6666 53.243 52.0002 53.243C52.3338 53.243 52.6538 53.3746 52.8908 53.6094L58.2502 58.9844L70.2346 47H63.2502C62.9187 47 62.6007 46.8683 62.3663 46.6339C62.1319 46.3995 62.0002 46.0815 62.0002 45.75C62.0002 45.4185 62.1319 45.1005 62.3663 44.8661C62.6007 44.6317 62.9187 44.5 63.2502 44.5H73.2502C73.5817 44.5 73.8997 44.6317 74.1341 44.8661C74.3685 45.1005 74.5002 45.4185 74.5002 45.75Z" fill="white"/>
<defs>
<linearGradient id="paint0_linear_360_2655" x1="57" y1="14.5455" x2="164.878" y2="64.7152" gradientUnits="userSpaceOnUse">
<stop stop-color="#751A87"/>
<stop offset="1" stop-color="#6A3775" stop-opacity="0"/>
</linearGradient>
</defs>
</svg>
