<svg width="25" height="24" viewBox="0 0 25 24" fill="none" xmlns="http://www.w3.org/2000/svg">
<g id="vuesax/outline/security-time">
<g id="security-time">
<path id="Vector" d="M12.4984 22.7604C11.4084 22.7604 10.3285 22.4404 9.47845 21.8104L5.17844 18.6004C4.03844 17.7504 3.14844 15.9704 3.14844 14.5604V7.12043C3.14844 5.58043 4.27845 3.94043 5.72845 3.40043L10.7184 1.53043C11.7084 1.16043 13.2685 1.16043 14.2585 1.53043L19.2484 3.40043C20.6984 3.94043 21.8284 5.58043 21.8284 7.12043V14.5504C21.8284 15.9704 20.9384 17.7404 19.7984 18.5904L15.4984 21.8004C14.6684 22.4404 13.5884 22.7604 12.4984 22.7604ZM11.2484 2.94043L6.25845 4.81043C5.40845 5.13043 4.65845 6.21043 4.65845 7.13043V14.5604C4.65845 15.5104 5.32843 16.8404 6.07843 17.4004L10.3784 20.6104C11.5284 21.4704 13.4684 21.4704 14.6284 20.6104L18.9284 17.4004C19.6884 16.8304 20.3484 15.5104 20.3484 14.5604V7.12043C20.3484 6.21043 19.5984 5.13043 18.7484 4.80043L13.7585 2.93043C13.0785 2.69043 11.9184 2.69043 11.2484 2.94043Z" fill="#3D3D3D"/>
<path id="Vector_2" d="M12.5 16.25C9.88 16.25 7.75 14.12 7.75 11.5C7.75 8.88 9.88 6.75 12.5 6.75C15.12 6.75 17.25 8.88 17.25 11.5C17.25 14.12 15.12 16.25 12.5 16.25ZM12.5 8.25C10.71 8.25 9.25 9.71 9.25 11.5C9.25 13.29 10.71 14.75 12.5 14.75C14.29 14.75 15.75 13.29 15.75 11.5C15.75 9.71 14.29 8.25 12.5 8.25Z" fill="#3D3D3D"/>
<path id="Vector_3" d="M11.496 13.2498C11.246 13.2498 10.996 13.1198 10.856 12.8898C10.646 12.5298 10.756 12.0698 11.116 11.8598L11.876 11.3998C11.956 11.3498 11.996 11.2698 11.996 11.1898V10.2598C11.996 9.84977 12.336 9.50977 12.746 9.50977C13.156 9.50977 13.496 9.83977 13.496 10.2498V11.1798C13.496 11.7898 13.166 12.3698 12.646 12.6798L11.876 13.1398C11.766 13.2198 11.626 13.2498 11.496 13.2498Z" fill="#3D3D3D"/>
</g>
</g>
</svg>
