<svg xmlns="http://www.w3.org/2000/svg" width="21" height="21" viewBox="0 0 21 21" fill="none">
  <path d="M9.97388 19.0832H15.3989C16.6501 19.0832 17.8489 18.0682 18.0589 16.8344L19.2226 9.86945C19.3626 9.01195 18.9251 7.86567 18.2514 7.32317L12.1876 2.47563C11.2514 1.72313 9.73765 1.72313 8.81015 2.46688L2.7464 7.32317C2.0639 7.86567 1.62639 9.01195 1.77514 9.86945L2.02014 11.3394" stroke="#747474" stroke-width="1.3125" stroke-linecap="round" stroke-linejoin="round"/>
  <path d="M1.75 16.625C3.29 16.66 4.34 17.71 4.375 19.25" stroke="#747474" stroke-width="1.3125" stroke-linecap="round" stroke-linejoin="round"/>
  <path d="M7 19.25C6.99125 18.585 6.8775 17.9638 6.67625 17.395C6.16 15.9338 5.0575 14.84 3.605 14.3237C3.03625 14.1225 2.415 14.0087 1.75 14" stroke="#747474" stroke-width="1.3125" stroke-linecap="round" stroke-linejoin="round"/>
  <path d="M1.74606 19.25H1.75394" stroke="#747474" stroke-width="1.75" stroke-linecap="round" stroke-linejoin="round"/>
</svg>