<svg xmlns="http://www.w3.org/2000/svg" width="21" height="21" viewBox="0 0 21 21" fill="none">
  <path d="M7.87577 12.25C7.87577 12.25 9.02421 13.5625 10.9383 13.5625C12.8523 13.5625 14.0008 12.25 14.0008 12.25M13.3445 7.875H13.3533M8.53202 7.875H8.54077M10.9383 17.5C15.0459 17.5 18.3758 14.1701 18.3758 10.0625C18.3758 5.95488 15.0459 2.625 10.9383 2.625C6.83065 2.625 3.50077 5.95488 3.50077 10.0625C3.50077 10.8937 3.63714 11.6931 3.88872 12.4395C3.98339 12.7204 4.03073 12.8609 4.03927 12.9687C4.0477 13.0753 4.04133 13.15 4.01497 13.2536C3.98827 13.3585 3.92934 13.4675 3.81148 13.6857L2.38028 16.3348C2.17613 16.7127 2.07406 16.9016 2.0969 17.0474C2.1168 17.1744 2.19155 17.2863 2.3013 17.3532C2.4273 17.4301 2.64091 17.408 3.06812 17.3638L7.54901 16.9006C7.68471 16.8866 7.75256 16.8796 7.8144 16.882C7.87522 16.8843 7.91816 16.89 7.97747 16.9037C8.03778 16.9176 8.11361 16.9468 8.26528 17.0052C9.09483 17.3248 9.99609 17.5 10.9383 17.5ZM13.782 7.875C13.782 8.11662 13.5861 8.3125 13.3445 8.3125C13.1029 8.3125 12.907 8.11662 12.907 7.875C12.907 7.63338 13.1029 7.4375 13.3445 7.4375C13.5861 7.4375 13.782 7.63338 13.782 7.875ZM8.96952 7.875C8.96952 8.11662 8.77364 8.3125 8.53202 8.3125C8.2904 8.3125 8.09452 8.11662 8.09452 7.875C8.09452 7.63338 8.2904 7.4375 8.53202 7.4375C8.77364 7.4375 8.96952 7.63338 8.96952 7.875Z" stroke="#747474" stroke-width="1.5" stroke-linecap="round" stroke-linejoin="round"/>
</svg>