<svg width="702" height="298" viewBox="0 0 702 298" fill="none" xmlns="http://www.w3.org/2000/svg">
<rect width="702" height="298" rx="21" fill="url(#paint0_linear_263_987)"/>
<g style="mix-blend-mode:screen">
<path style="mix-blend-mode:screen" d="M608.125 111.924C617.92 109.6 623.976 99.7746 621.651 89.9799C619.326 80.1853 609.501 74.1299 599.706 76.4548C589.911 78.7798 583.856 88.6047 586.181 98.3994C588.506 108.194 598.331 114.249 608.125 111.924Z" fill="url(#paint1_radial_263_987)"/>
<path style="mix-blend-mode:screen" d="M607.63 94.0337C616.778 107.733 622.96 119.663 621.438 120.679C619.916 121.695 611.266 111.414 602.118 97.7146C592.97 84.0153 586.788 72.0858 588.31 71.0693C589.833 70.0529 598.482 80.3344 607.63 94.0337Z" fill="url(#paint2_radial_263_987)"/>
<path style="mix-blend-mode:screen" d="M606.715 98.6305C593.015 107.778 581.086 113.96 580.069 112.438C579.053 110.916 589.334 102.266 603.034 93.1183C616.733 83.9703 628.663 77.7883 629.679 79.3104C630.695 80.8326 620.414 89.4825 606.715 98.6305Z" fill="url(#paint3_radial_263_987)"/>
<path style="mix-blend-mode:color-dodge" d="M605.308 93.6961C616.136 95.853 624.719 98.5767 624.479 99.7797C624.239 100.983 615.268 100.21 604.441 98.0526C593.613 95.8958 585.03 93.1721 585.27 91.9691C585.51 90.766 594.481 91.5393 605.308 93.6961Z" fill="url(#paint4_radial_263_987)"/>
<path style="mix-blend-mode:color-dodge" d="M607.053 96.3083C604.896 107.136 602.172 115.718 600.969 115.479C599.766 115.239 600.539 106.268 602.696 95.4405C604.853 84.6132 607.577 76.0303 608.78 76.27C609.983 76.5096 609.209 85.4811 607.053 96.3083Z" fill="url(#paint5_radial_263_987)"/>
</g>
<defs>
<linearGradient id="paint0_linear_263_987" x1="489.702" y1="264.281" x2="458.8" y2="-25.6676" gradientUnits="userSpaceOnUse">
<stop stop-color="#311640"/>
<stop offset="0.614583" stop-color="#171717" stop-opacity="0.7"/>
</linearGradient>
<radialGradient id="paint1_radial_263_987" cx="0" cy="0" r="1" gradientUnits="userSpaceOnUse" gradientTransform="translate(603.856 94.1883) rotate(-33.7331) scale(18.2277)">
<stop stop-color="#FFB43B"/>
<stop offset="0.10159" stop-color="#D09330"/>
<stop offset="0.234" stop-color="#996C24"/>
<stop offset="0.36772" stop-color="#6A4B19"/>
<stop offset="0.49995" stop-color="#443010"/>
<stop offset="0.63028" stop-color="#261B09"/>
<stop offset="0.75822" stop-color="#110C04"/>
<stop offset="0.88274" stop-color="#040301"/>
<stop offset="1"/>
</radialGradient>
<radialGradient id="paint2_radial_263_987" cx="0" cy="0" r="1" gradientUnits="userSpaceOnUse" gradientTransform="translate(604.874 95.8742) rotate(-33.7329) scale(3.31411 29.827)">
<stop stop-color="#FFB43B"/>
<stop offset="0.10159" stop-color="#D09330"/>
<stop offset="0.234" stop-color="#996C24"/>
<stop offset="0.36772" stop-color="#6A4B19"/>
<stop offset="0.49995" stop-color="#443010"/>
<stop offset="0.63028" stop-color="#261B09"/>
<stop offset="0.75822" stop-color="#110C04"/>
<stop offset="0.88274" stop-color="#040301"/>
<stop offset="1"/>
</radialGradient>
<radialGradient id="paint3_radial_263_987" cx="0" cy="0" r="1" gradientUnits="userSpaceOnUse" gradientTransform="translate(604.874 95.8744) rotate(56.267) scale(3.31411 29.827)">
<stop stop-color="#FFB43B"/>
<stop offset="0.10159" stop-color="#D09330"/>
<stop offset="0.234" stop-color="#996C24"/>
<stop offset="0.36772" stop-color="#6A4B19"/>
<stop offset="0.49995" stop-color="#443010"/>
<stop offset="0.63028" stop-color="#261B09"/>
<stop offset="0.75822" stop-color="#110C04"/>
<stop offset="0.88274" stop-color="#040301"/>
<stop offset="1"/>
</radialGradient>
<radialGradient id="paint4_radial_263_987" cx="0" cy="0" r="1" gradientUnits="userSpaceOnUse" gradientTransform="translate(604.874 95.8744) rotate(-78.7406) scale(2.22136 19.9868)">
<stop stop-color="#FFB43B"/>
<stop offset="0.10159" stop-color="#D09330"/>
<stop offset="0.234" stop-color="#996C24"/>
<stop offset="0.36772" stop-color="#6A4B19"/>
<stop offset="0.49995" stop-color="#443010"/>
<stop offset="0.63028" stop-color="#261B09"/>
<stop offset="0.75822" stop-color="#110C04"/>
<stop offset="0.88274" stop-color="#040301"/>
<stop offset="1"/>
</radialGradient>
<radialGradient id="paint5_radial_263_987" cx="0" cy="0" r="1" gradientUnits="userSpaceOnUse" gradientTransform="translate(604.874 95.8744) rotate(11.2593) scale(2.2214 19.987)">
<stop stop-color="#FFB43B"/>
<stop offset="0.10159" stop-color="#D09330"/>
<stop offset="0.234" stop-color="#996C24"/>
<stop offset="0.36772" stop-color="#6A4B19"/>
<stop offset="0.49995" stop-color="#443010"/>
<stop offset="0.63028" stop-color="#261B09"/>
<stop offset="0.75822" stop-color="#110C04"/>
<stop offset="0.88274" stop-color="#040301"/>
<stop offset="1"/>
</radialGradient>
</defs>
</svg>
