<svg xmlns="http://www.w3.org/2000/svg" width="21" height="21" viewBox="0 0 21 21" fill="none">
  <path d="M7.58625 12.25H3.5C2.5375 12.25 1.75 13.0375 1.75 14V19.25H7.58625V12.25Z" stroke="#747474" stroke-width="1.3125" stroke-miterlimit="10" stroke-linecap="round" stroke-linejoin="round"/>
  <path d="M11.6644 8.75H9.32812C8.36562 8.75 7.57812 9.5375 7.57812 10.5V19.25H13.4144V10.5C13.4144 9.5375 12.6356 8.75 11.6644 8.75Z" stroke="#747474" stroke-width="1.3125" stroke-miterlimit="10" stroke-linecap="round" stroke-linejoin="round"/>
  <path d="M17.5003 14.875H13.4141V19.25H19.2503V16.625C19.2503 15.6625 18.4628 14.875 17.5003 14.875Z" stroke="#747474" stroke-width="1.3125" stroke-miterlimit="10" stroke-linecap="round" stroke-linejoin="round"/>
  <path d="M10.9564 1.81244L11.4202 2.73994C11.4814 2.87119 11.6477 2.99368 11.7877 3.01118L12.6277 3.15119C13.1614 3.23869 13.2927 3.63242 12.9077 4.00867L12.2514 4.66492C12.1377 4.77867 12.0764 4.98868 12.1114 5.13743L12.2952 5.94244C12.4439 6.58119 12.1027 6.82619 11.5427 6.49369L10.7552 6.02994C10.6152 5.94244 10.3789 5.94244 10.2389 6.02994L9.45142 6.49369C8.89142 6.82619 8.55017 6.58119 8.69892 5.94244L8.88267 5.13743C8.91767 4.98868 8.85642 4.76992 8.74267 4.66492L8.09517 4.01743C7.71017 3.63243 7.83267 3.24742 8.37517 3.15992L9.21517 3.01994C9.35517 2.99369 9.52142 2.87119 9.58267 2.74869L10.0464 1.82117C10.3002 1.31367 10.7027 1.31369 10.9564 1.81244Z" stroke="#747474" stroke-width="1.3125" stroke-linecap="round" stroke-linejoin="round"/>
</svg>