<svg width="115" height="114" viewBox="0 0 115 114" fill="none" xmlns="http://www.w3.org/2000/svg">
<rect x="57.4346" y="0.805054" width="80" height="80" rx="22" transform="rotate(45 57.4346 0.805054)" fill="url(#paint0_linear_360_2651)"/>
<path d="M50.345 40.975C47.964 41.6312 45.5991 42.3447 43.2525 43.115C43.0382 43.1844 42.8478 43.3126 42.7028 43.485C42.5578 43.6574 42.4642 43.867 42.4325 44.09C41.0475 54.4825 44.2475 62.065 48.065 67.06C49.6813 69.196 51.6085 71.0777 53.7825 72.6425C54.6475 73.2525 55.4125 73.6925 56.015 73.975C56.315 74.1175 56.56 74.2125 56.7475 74.27C56.8295 74.2988 56.9141 74.3197 57 74.3325C57.0849 74.3187 57.1686 74.2978 57.25 74.27C57.44 74.2125 57.685 74.1175 57.985 73.975C58.585 73.6925 59.3525 73.25 60.2175 72.6425C62.3915 71.0777 64.3187 69.196 65.935 67.06C69.7525 62.0675 72.9525 54.4825 71.5675 44.09C71.5361 43.8669 71.4426 43.6571 71.2976 43.4847C71.1526 43.3123 70.9619 43.1842 70.7475 43.115C69.12 42.5825 66.3725 41.715 63.655 40.9775C60.88 40.225 58.3275 39.6675 57 39.6675C55.675 39.6675 53.12 40.225 50.345 40.9775V40.975ZM49.68 38.4C52.3925 37.6625 55.275 37 57 37C58.725 37 61.6075 37.6625 64.32 38.4C67.095 39.15 69.8925 40.0375 71.5375 40.575C72.2253 40.8021 72.835 41.2187 73.2967 41.7768C73.7584 42.3348 74.0533 43.0118 74.1475 43.73C75.6375 54.9225 72.18 63.2175 67.985 68.705C66.2061 71.0525 64.085 73.1196 61.6925 74.8375C60.8652 75.4319 59.9887 75.9547 59.0725 76.4C58.3725 76.73 57.62 77 57 77C56.38 77 55.63 76.73 54.9275 76.4C54.0113 75.9547 53.1348 75.432 52.3075 74.8375C49.9151 73.1196 47.794 71.0524 46.015 68.705C41.82 63.2175 38.3625 54.9225 39.8525 43.73C39.9467 43.0118 40.2416 42.3348 40.7033 41.7768C41.165 41.2187 41.7747 40.8021 42.4625 40.575C44.8505 39.792 47.257 39.0668 49.68 38.4Z" fill="white"/>
<path d="M64.1351 49.865C64.2515 49.9811 64.3439 50.119 64.4069 50.2709C64.4699 50.4228 64.5023 50.5856 64.5023 50.75C64.5023 50.9144 64.4699 51.0772 64.4069 51.2291C64.3439 51.3809 64.2515 51.5189 64.1351 51.635L56.6351 59.135C56.519 59.2514 56.3811 59.3437 56.2292 59.4068C56.0773 59.4698 55.9145 59.5022 55.7501 59.5022C55.5857 59.5022 55.4229 59.4698 55.271 59.4068C55.1192 59.3437 54.9812 59.2514 54.8651 59.135L51.1151 55.385C50.9989 55.2688 50.9067 55.1308 50.8438 54.9789C50.7809 54.8271 50.7485 54.6643 50.7485 54.5C50.7485 54.3356 50.7809 54.1729 50.8438 54.021C50.9067 53.8692 50.9989 53.7312 51.1151 53.615C51.2313 53.4988 51.3693 53.4066 51.5212 53.3437C51.673 53.2808 51.8358 53.2484 52.0001 53.2484C52.1645 53.2484 52.3272 53.2808 52.4791 53.3437C52.6309 53.4066 52.7689 53.4988 52.8851 53.615L55.7501 56.4825L62.3651 49.865C62.4812 49.7486 62.6192 49.6562 62.771 49.5932C62.9229 49.5302 63.0857 49.4977 63.2501 49.4977C63.4145 49.4977 63.5773 49.5302 63.7292 49.5932C63.8811 49.6562 64.019 49.7486 64.1351 49.865Z" fill="white"/>
<defs>
<linearGradient id="paint0_linear_360_2651" x1="57.4346" y1="15.3505" x2="165.312" y2="65.5202" gradientUnits="userSpaceOnUse">
<stop stop-color="#751A87"/>
<stop offset="1" stop-color="#6A3775" stop-opacity="0"/>
</linearGradient>
</defs>
</svg>
