<svg width="24" height="24" viewBox="0 0 24 24" fill="none" xmlns="http://www.w3.org/2000/svg">
<circle cx="12" cy="12" r="12" fill="white"/>
<path d="M19.3332 6.0067C19.3332 6.0067 17.9878 6.80137 17.2398 7.0267C16.8383 6.56504 16.3047 6.23783 15.7112 6.08932C15.1177 5.94081 14.4928 5.97817 13.9212 6.19634C13.3496 6.41451 12.8588 6.80297 12.5152 7.30918C12.1715 7.81539 11.9916 8.41493 11.9998 9.0267V9.69337C10.8283 9.72375 9.66735 9.46391 8.62051 8.937C7.57367 8.41009 6.67338 7.63246 5.99984 6.67337C5.99984 6.67337 3.33317 12.6734 9.33317 15.34C7.96019 16.272 6.32461 16.7393 4.6665 16.6734C10.6665 20.0067 17.9998 16.6734 17.9998 9.0067C17.9998 8.82137 17.9812 8.63604 17.9465 8.45337C18.6265 7.7827 19.3332 6.0067 19.3332 6.0067Z" stroke="#191919" stroke-linecap="round" stroke-linejoin="round"/>
</svg>
