<svg width="16" height="16" viewBox="0 0 16 16" fill="none" xmlns="http://www.w3.org/2000/svg">
<path d="M15.3332 2.0067C15.3332 2.0067 13.9878 2.80137 13.2398 3.0267C12.8383 2.56504 12.3047 2.23783 11.7112 2.08932C11.1177 1.94081 10.4928 1.97817 9.92122 2.19634C9.34961 2.41451 8.8588 2.80297 8.51516 3.30918C8.17152 3.81539 7.99164 4.41493 7.99984 5.0267V5.69337C6.82826 5.72375 5.66735 5.46391 4.62051 4.937C3.57367 4.41009 2.67338 3.63246 1.99984 2.67337C1.99984 2.67337 -0.666829 8.67337 5.33317 11.34C3.96019 12.272 2.32461 12.7393 0.666504 12.6734C6.6665 16.0067 13.9998 12.6734 13.9998 5.0067C13.9998 4.82137 13.9812 4.63604 13.9465 4.45337C14.6265 3.7827 15.3332 2.0067 15.3332 2.0067Z" stroke="#191919" stroke-linecap="round" stroke-linejoin="round"/>
</svg>
