<svg xmlns="http://www.w3.org/2000/svg" width="21" height="20" viewBox="0 0 21 20" fill="none">
  <path opacity="0.4" d="M6.19231 18.2591C4.21432 18.2591 2.60352 16.6207 2.60352 14.6078V10.6041C2.60352 8.5953 4.20948 6.96094 6.18424 6.96094H15.155C17.1338 6.96094 18.7438 8.59934 18.7438 10.6132V14.6152C18.7438 16.6248 17.1379 18.2591 15.1631 18.2591H14.4045H6.19231Z" fill="#242526"/>
  <path d="M10.236 2.2956L7.88841 4.5922C7.6463 4.82956 7.6463 5.21153 7.89002 5.44811C8.13374 5.6839 8.52676 5.68311 8.76886 5.44654L10.0544 4.18821V5.39467V12.1657C10.0544 12.4998 10.3329 12.771 10.6758 12.771C11.0196 12.771 11.2972 12.4998 11.2972 12.1657V4.18821L12.5828 5.44654C12.8249 5.68311 13.2179 5.6839 13.4617 5.44811C13.5835 5.32943 13.6448 5.1746 13.6448 5.01897C13.6448 4.86493 13.5835 4.71009 13.4633 4.5922L11.1165 2.2956C10.9995 2.18164 10.8413 2.11719 10.6758 2.11719C10.5112 2.11719 10.353 2.18164 10.236 2.2956Z" fill="#242526"/>
</svg>